<?xml version="1.0" standalone="no"?>
<svg xmlns:xlink="http://www.w3.org/1999/xlink" id="wave" style="transform:rotate(180deg); transition: 0.3s" viewBox="0 0 1440 370" version="1.1" xmlns="http://www.w3.org/2000/svg"><defs><linearGradient id="sw-gradient-0" x1="0" x2="0" y1="1" y2="0"><stop stop-color="rgba(8.276, 68.125, 193.847, 1)" offset="0%"/><stop stop-color="rgba(79.885, 105.894, 152.865, 1)" offset="100%"/></linearGradient></defs><path style="transform:translate(0, 0px); opacity:1" fill="url(#sw-gradient-0)" d="M0,111L30,117.2C60,123,120,136,180,129.5C240,123,300,99,360,80.2C420,62,480,49,540,37C600,25,660,12,720,6.2C780,0,840,0,900,18.5C960,37,1020,74,1080,92.5C1140,111,1200,111,1260,129.5C1320,148,1380,185,1440,215.8C1500,247,1560,271,1620,252.8C1680,234,1740,173,1800,123.3C1860,74,1920,37,1980,74C2040,111,2100,222,2160,234.3C2220,247,2280,160,2340,148C2400,136,2460,197,2520,234.3C2580,271,2640,284,2700,252.8C2760,222,2820,148,2880,135.7C2940,123,3000,173,3060,191.2C3120,210,3180,197,3240,209.7C3300,222,3360,259,3420,283.7C3480,308,3540,321,3600,289.8C3660,259,3720,185,3780,148C3840,111,3900,111,3960,92.5C4020,74,4080,37,4140,30.8C4200,25,4260,49,4290,61.7L4320,74L4320,370L4290,370C4260,370,4200,370,4140,370C4080,370,4020,370,3960,370C3900,370,3840,370,3780,370C3720,370,3660,370,3600,370C3540,370,3480,370,3420,370C3360,370,3300,370,3240,370C3180,370,3120,370,3060,370C3000,370,2940,370,2880,370C2820,370,2760,370,2700,370C2640,370,2580,370,2520,370C2460,370,2400,370,2340,370C2280,370,2220,370,2160,370C2100,370,2040,370,1980,370C1920,370,1860,370,1800,370C1740,370,1680,370,1620,370C1560,370,1500,370,1440,370C1380,370,1320,370,1260,370C1200,370,1140,370,1080,370C1020,370,960,370,900,370C840,370,780,370,720,370C660,370,600,370,540,370C480,370,420,370,360,370C300,370,240,370,180,370C120,370,60,370,30,370L0,370Z"/><defs><linearGradient id="sw-gradient-1" x1="0" x2="0" y1="1" y2="0"><stop stop-color="rgba(0, 64.965, 255, 1)" offset="0%"/><stop stop-color="rgba(21.445, 29.787, 91.392, 1)" offset="100%"/></linearGradient></defs><path style="transform:translate(0, 50px); opacity:0.9" fill="url(#sw-gradient-1)" d="M0,0L30,49.3C60,99,120,197,180,197.3C240,197,300,99,360,92.5C420,86,480,173,540,178.8C600,185,660,111,720,104.8C780,99,840,160,900,166.5C960,173,1020,123,1080,86.3C1140,49,1200,25,1260,24.7C1320,25,1380,49,1440,98.7C1500,148,1560,222,1620,222C1680,222,1740,148,1800,154.2C1860,160,1920,247,1980,240.5C2040,234,2100,136,2160,86.3C2220,37,2280,37,2340,67.8C2400,99,2460,160,2520,185C2580,210,2640,197,2700,185C2760,173,2820,160,2880,172.7C2940,185,3000,222,3060,222C3120,222,3180,185,3240,154.2C3300,123,3360,99,3420,129.5C3480,160,3540,247,3600,277.5C3660,308,3720,284,3780,234.3C3840,185,3900,111,3960,104.8C4020,99,4080,160,4140,203.5C4200,247,4260,271,4290,283.7L4320,296L4320,370L4290,370C4260,370,4200,370,4140,370C4080,370,4020,370,3960,370C3900,370,3840,370,3780,370C3720,370,3660,370,3600,370C3540,370,3480,370,3420,370C3360,370,3300,370,3240,370C3180,370,3120,370,3060,370C3000,370,2940,370,2880,370C2820,370,2760,370,2700,370C2640,370,2580,370,2520,370C2460,370,2400,370,2340,370C2280,370,2220,370,2160,370C2100,370,2040,370,1980,370C1920,370,1860,370,1800,370C1740,370,1680,370,1620,370C1560,370,1500,370,1440,370C1380,370,1320,370,1260,370C1200,370,1140,370,1080,370C1020,370,960,370,900,370C840,370,780,370,720,370C660,370,600,370,540,370C480,370,420,370,360,370C300,370,240,370,180,370C120,370,60,370,30,370L0,370Z"/><defs><linearGradient id="sw-gradient-2" x1="0" x2="0" y1="1" y2="0"><stop stop-color="rgba(0, 125.43, 255, 1)" offset="0%"/><stop stop-color="rgba(0, 0, 0, 1)" offset="100%"/></linearGradient></defs><path style="transform:translate(0, 100px); opacity:0.8" fill="url(#sw-gradient-2)" d="M0,37L30,55.5C60,74,120,111,180,117.2C240,123,300,99,360,123.3C420,148,480,222,540,222C600,222,660,148,720,104.8C780,62,840,49,900,55.5C960,62,1020,86,1080,123.3C1140,160,1200,210,1260,234.3C1320,259,1380,259,1440,228.2C1500,197,1560,136,1620,104.8C1680,74,1740,74,1800,117.2C1860,160,1920,247,1980,234.3C2040,222,2100,111,2160,55.5C2220,0,2280,0,2340,12.3C2400,25,2460,49,2520,92.5C2580,136,2640,197,2700,222C2760,247,2820,234,2880,197.3C2940,160,3000,99,3060,98.7C3120,99,3180,160,3240,166.5C3300,173,3360,123,3420,104.8C3480,86,3540,99,3600,129.5C3660,160,3720,210,3780,240.5C3840,271,3900,284,3960,277.5C4020,271,4080,247,4140,252.8C4200,259,4260,296,4290,314.5L4320,333L4320,370L4290,370C4260,370,4200,370,4140,370C4080,370,4020,370,3960,370C3900,370,3840,370,3780,370C3720,370,3660,370,3600,370C3540,370,3480,370,3420,370C3360,370,3300,370,3240,370C3180,370,3120,370,3060,370C3000,370,2940,370,2880,370C2820,370,2760,370,2700,370C2640,370,2580,370,2520,370C2460,370,2400,370,2340,370C2280,370,2220,370,2160,370C2100,370,2040,370,1980,370C1920,370,1860,370,1800,370C1740,370,1680,370,1620,370C1560,370,1500,370,1440,370C1380,370,1320,370,1260,370C1200,370,1140,370,1080,370C1020,370,960,370,900,370C840,370,780,370,720,370C660,370,600,370,540,370C480,370,420,370,360,370C300,370,240,370,180,370C120,370,60,370,30,370L0,370Z"/></svg>